<?xml version="1.0" encoding="UTF-8"?>
<svg id="Layer_1" data-name="Layer 1" xmlns="http://www.w3.org/2000/svg" width="51" height="51" viewBox="0 0 51 51">
  <circle cx="25.5" cy="25.5" r="25" fill="#9d5fe4" stroke="#fff" stroke-miterlimit="10"/>
  <path id="rect5668" d="M10.7,15.25c-1.26,0-2.28,1.02-2.28,2.28v15.94c0,1.26,1.02,2.28,2.28,2.28h29.61c1.26,0,2.28-1.02,2.28-2.28v-15.94c0-1.26-1.02-2.28-2.28-2.28H10.7ZM10.7,17.53h3.42c.63,0,1.14.51,1.14,1.14s-.51,1.14-1.14,1.14-1.14-.51-1.14-1.14l-1.14,1.14c.63,0,1.14.51,1.14,1.14s-.51,1.14-1.14,1.14-1.14-.51-1.14-1.14v-3.42ZM25.5,17.53c3.14,0,5.69,3.57,5.69,7.97h0c0,4.4-2.55,7.97-5.69,7.97s-5.69-3.57-5.69-7.97,2.55-7.97,5.69-7.97ZM36.89,17.53h3.42v3.42c0,.63-.51,1.14-1.14,1.14s-1.14-.51-1.14-1.14.51-1.14,1.14-1.14l-1.14-1.14c0,.63-.51,1.14-1.14,1.14s-1.14-.51-1.14-1.14.51-1.14,1.14-1.14ZM25.5,20.95c-.74,0-1.22.25-1.55.57h3.1c-.34-.32-.82-.57-1.55-.57ZM23.51,22.08c-.1.21-.14.39-.18.57h4.35c-.04-.18-.08-.36-.18-.57h-3.99ZM23.22,23.22v.57h4.55v-.57h-4.55ZM23.22,24.36v.57h4.55v-.57h-4.55ZM23.22,25.5v.57h4.55v-.57h-4.55ZM23.22,26.64l-.57.57h4.55l.57-.57h-4.55ZM22.08,27.78s.08.23.23.57h5.18l-.85-.57h-4.55ZM11.84,28.92c.63,0,1.14.51,1.14,1.14s-.51,1.14-1.14,1.14l1.14,1.14c0-.63.51-1.14,1.14-1.14s1.14.51,1.14,1.14-.51,1.14-1.14,1.14h-3.42v-3.42c0-.63.51-1.14,1.14-1.14ZM22.63,28.92c.1.19.17.36.31.57h5.16c.15-.31.24-.57.24-.57h-5.72ZM39.16,28.92c.63,0,1.14.51,1.14,1.14v3.42h-3.42c-.63,0-1.14-.51-1.14-1.14s.51-1.14,1.14-1.14,1.14.51,1.14,1.14l1.14-1.14c-.63,0-1.14-.51-1.14-1.14s.51-1.14,1.14-1.14ZM23.37,30.05c.18.21.38.4.59.57h3.23c.23-.18.43-.37.58-.57h-4.4Z" fill="#fff"/>
</svg>