<?xml version="1.0" encoding="UTF-8"?>
<svg id="Layer_1" data-name="Layer 1" xmlns="http://www.w3.org/2000/svg" width="51" height="51" viewBox="0 0 51 51">
  <circle cx="25.5" cy="25.5" r="25" fill="#9d5fe4" stroke="#fff" stroke-miterlimit="10"/>
  <path d="M38.66,16.49h-9.66v-7.24l-3.62-2.41-3.62,2.41v7.24h-9.66l-2.41,2.41v2.41h31.39v-2.41l-2.41-2.41ZM25.38,10.45c.97,0,1.69.72,1.69,1.93s-.72,1.69-1.69,1.69-1.93-.72-1.93-1.93c0-.97.97-1.69,1.93-1.69ZM38.66,23.73H12.1v9.66l-2.41,3.62v3.62h31.39v-3.62l-2.41-3.62v-9.66ZM19.34,37.02h-2.41v-10.87h2.41v10.87ZM26.59,37.02h-2.41v-10.87h2.41v10.87ZM33.83,37.02h-2.41v-10.87h2.41v10.87Z" fill="#fff"/>
</svg>