<?xml version="1.0" encoding="UTF-8"?>
<svg id="Layer_1" data-name="Layer 1" xmlns="http://www.w3.org/2000/svg" width="51" height="51" viewBox="0 0 51 51">
  <circle cx="25.5" cy="25.5" r="25" fill="#2f8ac4" stroke="#fff" stroke-miterlimit="10"/>
  <path d="M11.43,13.99c0-2.81,2.3-5.12,5.12-5.12h17.9c2.81,0,5.12,2.3,5.12,5.12v20.46c0,2.56-2.56,2.56-2.56,2.56v2.56c0,1.41-1.15,2.56-2.56,2.56s-2.56-1.15-2.56-2.56v-2.56h-12.79v2.56c0,1.41-1.15,2.56-2.56,2.56s-2.56-1.15-2.56-2.56v-2.56c-2.56,0-2.56-2.56-2.56-2.56V13.99ZM15.27,16.55c-.72,0-1.28.56-1.28,1.28v7.67c0,.72.56,1.28,1.28,1.28h20.46c.72,0,1.28-.56,1.28-1.28v-7.67c0-.72-.56-1.28-1.28-1.28H15.27ZM16.55,29.34c-1.41,0-2.56,1.15-2.56,2.56s1.15,2.56,2.56,2.56,2.56-1.15,2.56-2.56-1.15-2.56-2.56-2.56ZM34.45,29.34c-1.41,0-2.56,1.15-2.56,2.56s1.15,2.56,2.56,2.56,2.56-1.15,2.56-2.56-1.15-2.56-2.56-2.56ZM16.55,12.71c0,.72.56,1.28,1.28,1.28h15.35c.72,0,1.28-.56,1.28-1.28s-.56-1.28-1.28-1.28h-15.35c-.72,0-1.28.56-1.28,1.28Z" fill="#fff"/>
</svg>