<?xml version="1.0" encoding="UTF-8"?>
<svg id="Layer_1" data-name="Layer 1" xmlns="http://www.w3.org/2000/svg" width="51" height="51" viewBox="0 0 51 51">
  <circle cx="25.5" cy="25.5" r="25" fill="#d691c1" stroke="#fff" stroke-miterlimit="10"/>
  <path d="M17.04,44c-2.68,0-1.5-7.16-2.31-13.41-.27-2.04-2.68-4-3-5.52-1.02-5.2-2.66-14.75,3.43-15.93,6.09-1.18,6.28,5.36,10.41,5.36s4.21-6.33,10.33-5.36,4.26,10.46,3.46,15.82c-.27,1.21-2.95,3.97-3.16,5.52-.89,6.44.86,13.41-2.15,13.41-2.49,0-3.54-7.29-5.36-12.07-.72-2.23-1.72-3.92-3.11-3.92-4.13,0-4.8,16.09-8.53,16.09Z" fill="#fff"/>
</svg>