<?xml version="1.0" encoding="UTF-8"?>
<svg id="Layer_1" data-name="Layer 1" xmlns="http://www.w3.org/2000/svg" width="51" height="51" viewBox="0 0 51 51">
  <circle cx="25.5" cy="25.5" r="25" fill="#d691c1" stroke="#fff" stroke-miterlimit="10"/>
  <path id="rect4194" d="M24.02,6.24c-1.78,0-2.96,1.19-2.96,2.96v11.85h-11.85c-1.78,0-2.96,1.19-2.96,2.96v2.96c0,1.78,1.19,2.96,2.96,2.96h11.85v11.85c0,1.78,1.19,2.96,2.96,2.96h2.96c1.78,0,2.96-1.19,2.96-2.96v-11.85h11.85c1.78,0,2.96-1.19,2.96-2.96v-2.96c0-1.78-1.19-2.96-2.96-2.96h-11.85v-11.85c0-1.78-1.19-2.96-2.96-2.96h-2.96Z" fill="#fff"/>
</svg>