<?xml version="1.0" encoding="UTF-8"?>
<svg id="Layer_1" data-name="Layer 1" xmlns="http://www.w3.org/2000/svg" width="51" height="51" viewBox="0 0 51 51">
  <circle cx="25.5" cy="25.5" r="25" fill="#f2b701" stroke="#fff" stroke-miterlimit="10"/>
  <path id="path5" d="M10.61,9.71c-1.09,0-1.98.89-1.98,1.98,0,1.09.89,1.98,1.98,1.98h1.45c1.24,0,1.84,1.26,1.84,2.64v15.82s0,.79,0,.79c0,0,0,1.58.79,3.42.79,1.85,3.16,3.69,6.32,3.69h.53s12.92,0,12.92,0h.26s3.16,0,3.16,0c2.64,0,2.64-3.95,0-3.95h-17.13c-2.11,0-2.37-.53-2.9-1.58-.53-1.05-.53-1.85-.53-1.85v-.53h17.13s.03-.01.04-.02c1.93-.07,3.54-1.32,4.16-3.05.01-.02.03-.04.04-.06l3.68-12.69h-24.52c0-2.85-.58-3.9-1.99-5.27-1.46-1.43-5.13-1.32-5.13-1.32h-.13ZM18.65,42.66c0,1.58,1.05,2.64,2.64,2.64s2.64-1.05,2.64-2.64-1.05-2.64-2.64-2.64-2.64,1.05-2.64,2.64ZM31.83,42.66c0,1.58,1.05,2.64,2.64,2.64s2.64-1.05,2.64-2.64c0-1.58-1.05-2.64-2.64-2.64s-2.64,1.05-2.64,2.64Z" fill="#fff"/>
</svg>