<?xml version="1.0" encoding="UTF-8"?>
<svg id="Layer_1" data-name="Layer 1" xmlns="http://www.w3.org/2000/svg" width="51" height="51" viewBox="0 0 51 51">
  <circle cx="25.5" cy="25.5" r="25" fill="#009392" stroke="#fff" stroke-miterlimit="10"/>
  <path d="M7.57,31.98c-.26-.2-.23-.53-.23-.53l1.47-17.46s.02-.19.11-.29c.05-.06.12-.15.25-.2,1.48-.6,9.5-4.95,13.54-.9.67.78,1.4,1.92,1.4,2.79v14.77s.02.31-.27.5c-.07.04-.35.17-.68,0-6.22-3.11-13.16.43-14.91,1.36-.35.19-.63-.01-.68-.05ZM42.75,32.03c-1.75-.93-8.7-4.47-14.91-1.36-.33.16-.61.04-.68,0-.28-.19-.27-.5-.27-.5v-14.77c0-.87.73-2.02,1.4-2.79,4.04-4.05,12.01.3,13.49.9.13.05.2.14.25.2.09.1.11.29.11.29l1.52,17.46s.04.33-.23.53c-.05.04-.33.24-.68.05ZM29.31,39.66c.1-.02.27-.12.33-.22.07-.1.11-.17.12-.3.14-2.62,4.54-5.06,12.99-.08.22.12.47.11.68-.04.24-.18.24-.47.24-.47v-1.55s0-.21-.08-.33c-.06-.09-.13-.18-.26-.24-5.66-3.67-12.81-5.3-16.44-.44-.05.12-.1.17-.2.25-.16.12-.35.12-.35.12h-1.64s-.19,0-.35-.12c-.1-.08-.15-.13-.2-.25-3.63-4.86-10.78-3.3-16.44.37-.13.06-.2.15-.26.24-.08.12-.08.33-.08.33v1.55s0,.3.24.47c.21.15.46.17.68.04,8.45-4.98,12.85-2.46,12.99.16.01.13.05.2.12.3.06.09.23.19.33.22,2.02.5,4.94.7,7.61,0Z" fill="#fff"/>
</svg>