<?xml version="1.0" encoding="UTF-8"?>
<svg id="Layer_1" data-name="Layer 1" xmlns="http://www.w3.org/2000/svg" width="51" height="51" viewBox="0 0 51 51">
  <circle cx="25.5" cy="25.5" r="25" fill="#d691c1" stroke="#fff" stroke-miterlimit="10"/>
  <path d="M30.69,17.76l2.78-4c.16.01.31.01.47,0,1.79,0,3.25-1.45,3.24-3.25,0-1.79-1.45-3.25-3.25-3.24-1.79,0-3.25,1.45-3.24,3.25,0,.03,0,.07,0,.1v.26l-6.49,6.88h6.49ZM37.19,22.96v-2.6H13.81v2.6l3.9,9.09-3.9,9.09v2.6h23.37v-2.6l-2.6-9.09,2.6-9.09ZM31.99,33.34h-5.19v5.19h-2.6v-5.19h-5.19v-2.6h5.19v-5.19h2.6v5.19h5.19v2.6Z" fill="#fff"/>
</svg>