<?xml version="1.0" encoding="UTF-8"?>
<svg id="Layer_1" data-name="Layer 1" xmlns="http://www.w3.org/2000/svg" width="51" height="51" viewBox="0 0 51 51">
  <circle cx="25.5" cy="25.5" r="25" fill="#a5aa99" stroke="#fff" stroke-miterlimit="10"/>
  <path id="rect4718" d="M22.28,8.86l1.35,2.7h13.52l1.35-2.7h-16.22ZM23.63,12.91v3.38s0,7.43,6.76,7.43,6.76-7.43,6.76-7.43v-3.38h-13.52ZM12.77,16.93c-1.49.02-2.68,1.25-2.66,2.74v10.81c0,1.73,1.6,3.01,3.29,2.64l7.52-1.67v12.55l15.89-18.73c-.38-.11-.77-.19-1.18-.19h-10.66l-9.46,2.04v-7.45c.02-1.52-1.22-2.76-2.75-2.74ZM39.17,27l-14.43,17h15.11v-14.71c0-.85-.25-1.63-.68-2.29Z" fill="#fff"/>
</svg>