<?xml version="1.0" encoding="UTF-8"?>
<svg id="Layer_1" data-name="Layer 1" xmlns="http://www.w3.org/2000/svg" width="51" height="51" viewBox="0 0 51 51">
  <circle cx="25.5" cy="25.5" r="25" fill="#a5aa99" stroke="#fff" stroke-miterlimit="10"/>
  <path d="M43.22,14.13c0,.64-.32,1.24-.86,1.6l-16.86,11.24L8.64,15.73c-.54-.36-.86-.96-.86-1.6,0-1.06.86-1.92,1.92-1.92h31.59c1.06,0,1.92.86,1.92,1.92ZM43.22,20.97v14.86c0,1.63-1.32,2.95-2.95,2.95H10.73c-1.63,0-2.95-1.32-2.95-2.95v-14.86c0-.59.66-.94,1.15-.61l16.57,11.05,16.57-11.05c.49-.33,1.15.02,1.15.61Z" fill="#fff"/>
</svg>