<?xml version="1.0" encoding="UTF-8"?>
<svg id="Layer_1" data-name="Layer 1" xmlns="http://www.w3.org/2000/svg" width="51" height="51" viewBox="0 0 51 51">
  <circle cx="25.5" cy="25.5" r="25" fill="#009392" stroke="#fff" stroke-miterlimit="10"/>
  <path d="M21,16.09l-6.84-1.82,1.24-4.57c.21-.75.98-1.19,1.73-.99l4.1,1.1c.75.2,1.2.97,1,1.72,0,0,0,0,0,0,0,0-1.23,4.56-1.23,4.56ZM8.32,36.73c-.08-.25-.08-.52-.01-.77l5.1-18.88,6.83,1.82-5.1,18.88c-.07.26-.21.49-.4.67l-4.09,3.78c-.17.16-.44.15-.6-.03-.04-.05-.07-.1-.09-.16,0,0-1.64-5.3-1.64-5.3ZM33.51,19.89c-6.31,0-8.42-2.1-8.42-8.42,6.31,0,8.42,2.1,8.42,8.42ZM29.59,42.29c-3.84.59-8.77-4.79-9.88-10.66l2.49-9.22c1.12-.98,2.53-1.5,3.98-1.5,1.57,0,3.1.47,4.39,1.37.93.62,2.14.61,3.06-.03,1.19-.88,2.62-1.35,4.1-1.34,2.16,0,4.61,1.37,5.75,3.37,4.31,7.57-3.35,18.83-8.82,18.01-.25-.05-.49-.14-.72-.26-1.15-.59-2.51-.59-3.65,0-.22.12-.46.21-.7.26Z" fill="#fff"/>
</svg>