<?xml version="1.0" encoding="UTF-8"?>
<svg id="Layer_1" data-name="Layer 1" xmlns="http://www.w3.org/2000/svg" width="51" height="51" viewBox="0 0 51 51">
  <circle cx="25.5" cy="25.5" r="25" fill="#2f8ac4" stroke="#fff" stroke-miterlimit="10"/>
  <path id="path3" d="M14.35,8.15c-1.37,0-2.48,1.11-2.48,2.48v19.82c0,1.37,1.11,2.48,2.48,2.48h22.3c1.37,0,2.48-1.11,2.48-2.48V10.63c0-1.37-1.11-2.48-2.48-2.48H14.35ZM21.16,9.39h8.7c.34,0,.62.28.62.62s-.28.62-.62.62h-8.7c-.34,0-.62-.28-.62-.62s.28-.62.62-.62ZM15.59,13.11h8.67v9.91h-8.67c-.68,0-1.24-.55-1.24-1.24v-7.43c0-.68.55-1.24,1.24-1.24ZM26.74,13.11h8.67c.68,0,1.24.55,1.24,1.24v7.43c0,.68-.55,1.24-1.24,1.24h-8.67v-9.91ZM19.31,25.5c1.37,0,2.48,1.11,2.48,2.48s-1.11,2.48-2.48,2.48-2.48-1.11-2.48-2.48,1.11-2.48,2.48-2.48ZM31.69,25.5c1.37,0,2.48,1.11,2.48,2.48s-1.11,2.48-2.48,2.48-2.48-1.11-2.48-2.48,1.11-2.48,2.48-2.48ZM32.8,35.4c-.16.01-.32.06-.47.14-.55.29-.8.95-.58,1.53l.42.82h-13.33l.32-.67c.24-.64-.08-1.35-.72-1.6-.58-.22-1.24.03-1.53.58l-2.48,4.96c-.05.14-.08.29-.07.45,0,.68.55,1.24,1.24,1.24.45,0,.86-.25,1.06-.64v-.13h.17l.77-1.71h15.81l.77,1.71v.13c.21.39.62.64,1.06.64.68,0,1.24-.55,1.24-1.24.05-.2.05-.4,0-.6l-2.48-4.96c-.24-.45-.72-.7-1.2-.66Z" fill="#fff"/>
</svg>