<?xml version="1.0" encoding="UTF-8"?>
<svg id="Layer_1" data-name="Layer 1" xmlns="http://www.w3.org/2000/svg" width="51" height="51" viewBox="0 0 51 51">
  <circle cx="25.5" cy="25.5" r="25" fill="#2f8ac4" stroke="#fff" stroke-miterlimit="10"/>
  <path id="path14245" d="M20.18,5.54c-1.33,0-1.33,1.33-1.33,1.33v2.66c0,.74.59,1.33,1.33,1.33s1.33-.59,1.33-1.33v-1.33h2.66v5.32h-2.66s-5.32,0-5.32,5.32v7.99c0,7.99,7.99,7.99,7.99,7.99h2.66s7.99,0,7.99-7.99v-7.99c0-5.32-5.32-5.32-5.32-5.32h-2.66v-5.32h2.66v1.33c0,.74.59,1.33,1.33,1.33s1.33-.59,1.33-1.33v-2.66c0-1.33-1.33-1.33-1.33-1.33h-10.65ZM25.5,16.18l5.44,2.06,1.21,4.6c.35,1.33-1.33,1.33-1.33,1.33h-10.65s-1.68,0-1.33-1.33l1.21-4.6,5.44-2.06ZM25.5,26.83c.73,0,1.33.6,1.33,1.33s-.6,1.33-1.33,1.33-1.33-.6-1.33-1.33.6-1.33,1.33-1.33ZM16.52,37.48l-2.99,7.99h3.99l1-2.66h13.97l1,2.66h3.99l-2.99-7.99h-3.99l1,2.66h-11.98l1-2.66h-3.99Z" fill="#fff"/>
</svg>