<?xml version="1.0" encoding="UTF-8"?>
<svg id="Layer_1" data-name="Layer 1" xmlns="http://www.w3.org/2000/svg" width="51" height="51" viewBox="0 0 51 51">
  <circle cx="25.5" cy="25.5" r="25" fill="#009392" stroke="#fff" stroke-miterlimit="10"/>
  <path d="M25.5,8.36L5.73,17.59l5.27,2.37v4.48c-1.58.53-2.64,2.11-2.64,3.69s1.05,3.16,2.64,3.69v.26l-2.37,5.54c-.79,2.37-.26,5.01,3.69,5.01s4.48-2.64,3.69-5.01l-2.37-5.54c1.58-.79,2.64-2.11,2.64-3.95s-1.05-3.16-2.64-3.69v-3.16l11.86,5.54,19.77-9.23-19.77-9.23ZM37.1,25.5l-11.86,5.27-6.33-2.9v.26c0,1.85-.79,3.43-2.11,4.75l1.58,3.69v.26c.26,1.05.53,2.11.26,3.16,1.85.79,3.95,1.32,6.59,1.32,8.7,0,11.86-5.27,11.86-7.91v-7.91h0Z" fill="#fff"/>
</svg>